<svg id="Слой_1" data-name="Слой 1" xmlns="http://www.w3.org/2000/svg" viewBox="0 0 50 50.01"><defs><style>.cls-1{fill:#f7931a;}.cls-2{fill:#fff;}</style></defs><title>Монтажная область 1</title><path class="cls-1" d="M49.25,31.05A25,25,0,1,1,31,.75a25,25,0,0,1,18.21,30.3Z"/><path class="cls-2" d="M36.9,21.9c.5-3.33-2-5.12-5.5-6.31l1.12-4.51-2.74-.68-1.09,4.39-2.2-.52,1.1-4.42-2.74-.68-1.12,4.51L22,13.26h0l-3.78-.94-.73,2.93s2,.47,2,.5a1.46,1.46,0,0,1,1.28,1.6l-1.28,5.13.29.09-.29-.07-1.79,7.19a1,1,0,0,1-1.26.65s-2-.5-2-.5L13,33l3.57.89,2,.5-1.14,4.56,2.74.68L21.3,35.1l2.19.57-1.12,4.49,2.74.68,1.14-4.55c4.68.89,8.2.53,9.68-3.7,1.19-3.41-.06-5.37-2.52-6.65a4.38,4.38,0,0,0,3.5-4h0Zm-6.27,8.79c-.85,3.41-6.58,1.57-8.44,1.1l1.51-6c1.86.46,7.82,1.38,6.94,4.94Zm.85-8.84c-.77,3.1-5.55,1.52-7.1,1.14l1.37-5.48C27.3,17.9,32.28,18.62,31.48,21.85Z"/></svg>