<svg id="Слой_1" data-name="Слой 1" xmlns="http://www.w3.org/2000/svg" viewBox="0 0 50 50.01"><defs><style>.cls-1{fill:#f7931a;}.cls-2{fill:#fff;}</style></defs><title>Монтажная область 1</title><path class="cls-1" d="M49.25,31.05A25,25,0,1,1,31,.75a25,25,0,0,1,18.21,30.3Z"/><path class="cls-2" d="M33,15.7c-1.48-3-4.58-3.06-8.11-2.07L23.3,9.28l-2.65,1,1.59,4.23c-.69.26-1.4.54-2.1.82l-1.6-4.26-2.65,1,1.63,4.35-1.68.65h0l-3.65,1.37,1.06,2.83s1.94-.77,1.92-.72a1.46,1.46,0,0,1,2,.59l1.86,5,.29-.09-.28.11L21.6,33a1,1,0,0,1-.67,1.25S19,35,19,35l.66,3.36,3.45-1.29,1.9-.69,1.65,4.4,2.64-1-1.63-4.35,2.12-.77L31.42,39l2.65-1-1.65-4.39c4.35-1.93,7-4.22,5.87-8.54-1-3.48-3.1-4.39-5.85-4A4.38,4.38,0,0,0,33,15.7h0Zm-.18,10.79c1.23,3.29-4.53,5-6.33,5.7l-2.19-5.83c1.79-.67,7.23-3.3,8.51.13Zm-4.32-7.76c1.12,3-3.7,4.4-5.2,5l-2-5.29C22.86,17.85,27.38,15.61,28.55,18.73Z"/></svg>