<svg id="Слой_1" data-name="Слой 1" xmlns="http://www.w3.org/2000/svg" xmlns:xlink="http://www.w3.org/1999/xlink" viewBox="0 0 50 50.08"><defs><style>.cls-1{fill:none;}.cls-2{clip-path:url(#clip-path);}.cls-3{fill:url(#Безымянный_градиент);}</style><clipPath id="clip-path"><rect class="cls-1" width="50" height="50"/></clipPath><linearGradient id="Безымянный_градиент" x1="5.56" y1="26.92" x2="44.45" y2="26.92" gradientTransform="matrix(1, 0, 0, -1, 0, 52)" gradientUnits="userSpaceOnUse"><stop offset="0" stop-color="#d6912b"/><stop offset="1" stop-color="#f6c450"/></linearGradient></defs><title>Монтажная область 1</title><g class="cls-2"><path d="M25,50.08A25,25,0,0,1,15.27,2,25,25,0,0,1,34.73,48.11,24.67,24.67,0,0,1,25,50.08Z"/></g><g class="cls-2"><path class="cls-3" d="M25,5.64a19.44,19.44,0,1,0,13.75,5.69A19.34,19.34,0,0,0,25,5.64Z"/></g><g class="cls-2"><path d="M23.5,31.31H34.33v5.44H27.66c.11,1.56.17,3,.28,4.55H22.33V36.8H15.66a27.32,27.32,0,0,1,.11-5.22c.17-.89,1.17-1.67,1.78-2.44,2.11-2.5,4.22-4.94,6.39-7.45.84-.94,1.67-1.83,2.61-2.89H16.16V13.36h6.17V8.81h5.39v4.45h6.72a27.85,27.85,0,0,1-.11,5.28c-.17.89-1.17,1.67-1.83,2.44-2.11,2.5-4.22,4.94-6.39,7.45-.83,1-1.66,1.88-2.61,2.88Z"/></g></svg>