<svg width="512.002" height="338" xmlns="http://www.w3.org/2000/svg">

 <g>
  <title>background</title>
  <rect fill="none" id="canvas_background" height="340" width="514.002" y="-1" x="-1"/>
 </g>
 <g>
  <title>Layer 1</title>
  <path id="svg_1" fill="#41479B" d="m503.172,336.725l-494.344,0c-4.875,0 -8.828,-3.953 -8.828,-8.828l0,-317.793c0,-4.875 3.953,-8.828 8.828,-8.828l494.345,0c4.875,0 8.828,3.953 8.828,8.828l0,317.793c-0.001,4.875 -3.954,8.828 -8.829,8.828z"/>
  <path id="svg_2" fill="#F5F5F5" d="m512,10.104c0,-4.875 -3.953,-8.828 -8.828,-8.828l-39.495,0l-163.54,107.147l0,-107.147l-88.276,0l0,107.147l-163.539,-107.147l-39.494,0c-4.875,0 -8.828,3.953 -8.828,8.828l0,22.831l140.309,91.927l-140.309,0l0,88.276l140.309,0l-140.309,91.928l0,22.831c0,4.875 3.953,8.828 8.828,8.828l39.495,0l163.54,-107.147l0,107.147l88.276,0l0,-107.147l163.54,107.147l39.495,0c4.875,0 8.828,-3.953 8.828,-8.828l0,-22.831l-140.309,-91.927l140.307,0l0,-88.276l-140.309,0l140.309,-91.928l0,-22.831z"/>
  <g id="svg_3">
   <polygon id="svg_4" fill="#FF4B55" points="512,142.51800537109375 282.4830017089844,142.51800537109375 282.4830017089844,1.2760009765625 229.51699829101562,1.2760009765625 229.51699829101562,142.51800537109375 0,142.51800537109375 0,195.48300170898438 229.51699829101562,195.48300170898438 229.51699829101562,336.7250061035156 282.4830017089844,336.7250061035156 282.4830017089844,195.48300170898438 512,195.48300170898438 "/>
   <path id="svg_5" fill="#FF4B55" d="m178.948,213.138l-178.698,115.997c0.625,4.263 4.14,7.59 8.577,7.59l12.159,0l190.39,-123.586l-32.428,0l0,-0.001z"/>
   <path id="svg_6" fill="#FF4B55" d="m346.388,213.138l-32.428,0l190.113,123.404c4.431,-0.472 7.928,-4.09 7.928,-8.646l0,-7.258l-165.613,-107.5z"/>
   <path id="svg_7" fill="#FF4B55" d="m0,19.849l161.779,105.014l32.428,0l-189.064,-122.726c-3.02,1.403 -5.143,4.418 -5.143,7.967l0,9.745z"/>
   <path id="svg_8" fill="#FF4B55" d="m332.566,124.863l179.127,-116.277c-0.744,-4.122 -4.184,-7.309 -8.521,-7.309l-12.647,0l-190.387,123.586l32.428,0z"/>
  </g>
  <g id="svg_9"/>
  <g id="svg_10"/>
  <g id="svg_11"/>
  <g id="svg_12"/>
  <g id="svg_13"/>
  <g id="svg_14"/>
  <g id="svg_15"/>
  <g id="svg_16"/>
  <g id="svg_17"/>
  <g id="svg_18"/>
  <g id="svg_19"/>
  <g id="svg_20"/>
  <g id="svg_21"/>
  <g id="svg_22"/>
  <g id="svg_23"/>
 </g>
</svg>