<svg xmlns="http://www.w3.org/2000/svg" viewBox="0 0 1961.37 506.3"><defs><style>.a{fill:#2280c3;}.b{fill:#12202d;}.c{fill:#4994d0;}.d{fill:#676767;}.e{fill:#ffffff;}</style></defs><title>Logo-Outlines</title><polygon class="a" points="175.43 303.27 204.71 353.9 233.98 303.27 175.43 303.27"/><polygon class="a" points="233.98 303.27 263.26 353.9 292.54 303.27 233.98 303.27"/><polygon class="a" points="204.71 353.9 233.98 303.27 263.26 353.9 204.71 353.9"/><polygon class="b" points="116.87 202.01 146.15 252.65 175.43 202.01 116.87 202.01"/><polygon class="c" points="175.43 202.01 204.71 252.65 233.98 202.01 175.43 202.01"/><polygon class="c" points="233.98 202.01 263.26 252.65 292.54 202.01 233.98 202.01"/><polygon class="b" points="87.59 252.65 116.87 202.01 146.15 252.65 87.59 252.65"/><polygon class="b" points="146.15 252.65 175.43 202.01 204.71 252.65 146.15 252.65"/><polygon class="c" points="204.71 252.65 233.98 202.01 263.26 252.65 204.71 252.65"/><polygon class="b" points="116.87 303.27 146.15 252.65 175.43 303.27 116.87 303.27"/><polygon class="a" points="175.43 303.27 204.71 252.65 233.98 303.27 175.43 303.27"/><polygon class="a" points="233.98 303.27 263.26 252.65 292.54 303.27 233.98 303.27"/><polygon class="b" points="87.59 252.65 116.87 303.27 146.15 252.65 87.59 252.65"/><polygon class="b" points="146.15 252.65 175.43 303.27 204.71 252.65 146.15 252.65"/><polygon class="a" points="204.71 252.65 233.98 303.27 263.26 252.65 204.71 252.65"/><polygon class="b" points="116.87 202.01 146.15 151.38 175.43 202.01 116.87 202.01"/><polygon class="c" points="175.43 202.01 204.71 151.38 233.98 202.01 175.43 202.01"/><polygon class="c" points="233.98 202.01 263.26 151.38 292.54 202.01 233.98 202.01"/><polygon class="c" points="146.15 151.38 175.43 202.01 204.71 151.38 146.15 151.38"/><polygon class="c" points="204.71 151.38 233.98 202.01 263.26 151.38 204.71 151.38"/><polygon class="a" points="437.61 455.17 466.3 505.8 494.98 455.17 437.61 455.17"/><polygon class="a" points="494.98 455.17 523.67 505.8 552.36 455.17 494.98 455.17"/><polygon class="a" points="466.3 505.8 494.98 455.17 523.67 505.8 466.3 505.8"/><polygon class="c" points="437.61 353.9 466.3 404.54 494.98 353.9 437.61 353.9"/><polygon class="c" points="494.98 353.9 523.67 404.54 552.36 353.9 494.98 353.9"/><polygon class="d" points="351.54 404.54 380.23 353.9 408.92 404.54 351.54 404.54"/><polygon class="b" points="408.92 404.54 437.61 353.9 466.3 404.54 408.92 404.54"/><polygon class="c" points="466.3 404.54 494.98 353.9 523.67 404.54 466.3 404.54"/><polygon class="c" points="523.67 404.54 552.36 353.9 581.05 404.54 523.67 404.54"/><polygon class="a" points="437.61 455.17 466.3 404.54 494.98 455.17 437.61 455.17"/><polygon class="a" points="494.98 455.17 523.67 404.54 552.36 455.17 494.98 455.17"/><polygon class="d" points="351.54 404.54 380.23 455.17 408.92 404.54 351.54 404.54"/><polygon class="b" points="408.92 404.54 437.61 455.17 466.3 404.54 408.92 404.54"/><polygon class="a" points="466.3 404.54 494.98 455.17 523.67 404.54 466.3 404.54"/><polygon class="a" points="523.67 404.54 552.36 455.17 581.05 404.54 523.67 404.54"/><polygon class="b" points="378.12 455.17 407.4 505.8 436.68 455.17 378.12 455.17"/><polygon class="a" points="436.68 455.17 465.96 505.8 495.24 455.17 436.68 455.17"/><polygon class="a" points="495.24 455.17 524.51 505.8 553.79 455.17 495.24 455.17"/><polygon class="a" points="407.4 505.8 436.68 455.17 465.96 505.8 407.4 505.8"/><polygon class="a" points="465.96 505.8 495.24 455.17 524.51 505.8 465.96 505.8"/><polygon class="b" points="378.12 353.9 407.4 404.54 436.68 353.9 378.12 353.9"/><polygon class="c" points="436.68 353.9 465.96 404.54 495.24 353.9 436.68 353.9"/><polygon class="c" points="495.24 353.9 524.51 404.54 553.79 353.9 495.24 353.9"/><polygon class="b" points="348.84 404.54 378.12 353.9 407.4 404.54 348.84 404.54"/><polygon class="b" points="407.4 404.54 436.68 353.9 465.96 404.54 407.4 404.54"/><polygon class="c" points="465.96 404.54 495.24 353.9 524.51 404.54 465.96 404.54"/><polygon class="c" points="524.51 404.54 553.79 353.9 583.07 404.54 524.51 404.54"/><polygon class="b" points="378.12 455.17 407.4 404.54 436.68 455.17 378.12 455.17"/><polygon class="a" points="436.68 455.17 465.96 404.54 495.24 455.17 436.68 455.17"/><polygon class="a" points="495.24 455.17 524.51 404.54 553.79 455.17 495.24 455.17"/><polygon class="b" points="348.84 404.54 378.12 455.17 407.4 404.54 348.84 404.54"/><polygon class="b" points="407.4 404.54 436.68 455.17 465.96 404.54 407.4 404.54"/><polygon class="a" points="465.96 404.54 495.24 455.17 524.51 404.54 465.96 404.54"/><polygon class="a" points="524.51 404.54 553.79 455.17 583.07 404.54 524.51 404.54"/><polygon class="b" points="378.12 353.9 407.4 303.27 436.68 353.9 378.12 353.9"/><polygon class="c" points="436.68 353.9 465.96 303.27 495.24 353.9 436.68 353.9"/><polygon class="c" points="495.24 353.9 524.51 303.27 553.79 353.9 495.24 353.9"/><polygon class="c" points="407.4 303.27 436.68 353.9 465.96 303.27 407.4 303.27"/><polygon class="c" points="465.96 303.27 495.24 353.9 524.51 303.27 465.96 303.27"/><polygon class="b" points="290.28 303.02 319.56 353.65 348.83 303.02 290.28 303.02"/><polygon class="a" points="348.83 303.02 378.11 353.65 407.39 303.02 348.83 303.02"/><polygon class="a" points="407.39 303.02 436.67 353.65 465.95 303.02 407.39 303.02"/><polygon class="a" points="319.56 353.65 348.83 303.02 378.11 353.65 319.56 353.65"/><polygon class="a" points="378.11 353.65 407.39 303.02 436.67 353.65 378.11 353.65"/><polygon class="b" points="290.28 201.76 319.56 252.39 348.83 201.76 290.28 201.76"/><polygon class="c" points="348.83 201.76 378.11 252.39 407.39 201.76 348.83 201.76"/><polygon class="c" points="407.39 201.76 436.67 252.39 465.95 201.76 407.39 201.76"/><polygon class="b" points="261 252.39 290.28 201.76 319.56 252.39 261 252.39"/><polygon class="b" points="319.56 252.39 348.83 201.76 378.11 252.39 319.56 252.39"/><polygon class="c" points="378.11 252.39 407.39 201.76 436.67 252.39 378.11 252.39"/><polygon class="c" points="436.67 252.39 465.95 201.76 495.23 252.39 436.67 252.39"/><polygon class="b" points="290.28 303.02 319.56 252.39 348.83 303.02 290.28 303.02"/><polygon class="a" points="348.83 303.02 378.11 252.39 407.39 303.02 348.83 303.02"/><polygon class="a" points="407.39 303.02 436.67 252.39 465.95 303.02 407.39 303.02"/><polygon class="b" points="261 252.39 290.28 303.02 319.56 252.39 261 252.39"/><polygon class="b" points="319.56 252.39 348.83 303.02 378.11 252.39 319.56 252.39"/><polygon class="a" points="378.11 252.39 407.39 303.02 436.67 252.39 378.11 252.39"/><polygon class="a" points="436.67 252.39 465.95 303.02 495.23 252.39 436.67 252.39"/><polygon class="c" points="348.83 201.76 378.11 151.13 407.39 201.76 348.83 201.76"/><polygon class="c" points="407.39 201.76 436.67 151.13 465.95 201.76 407.39 201.76"/><polygon class="c" points="378.11 151.13 407.39 201.76 436.67 151.13 378.11 151.13"/><polygon class="b" points="204.97 455.17 234.24 505.8 263.52 455.17 204.97 455.17"/><polygon class="a" points="263.52 455.17 292.8 505.8 322.08 455.17 263.52 455.17"/><polygon class="a" points="322.08 455.17 351.36 505.8 380.64 455.17 322.08 455.17"/><polygon class="a" points="234.24 505.8 263.52 455.17 292.8 505.8 234.24 505.8"/><polygon class="a" points="292.8 505.8 322.08 455.17 351.36 505.8 292.8 505.8"/><polygon class="b" points="204.97 353.9 234.24 404.54 263.52 353.9 204.97 353.9"/><polygon class="c" points="263.52 353.9 292.8 404.54 322.08 353.9 263.52 353.9"/><polygon class="c" points="322.08 353.9 351.36 404.54 380.64 353.9 322.08 353.9"/><polygon class="b" points="175.69 404.54 204.97 353.9 234.24 404.54 175.69 404.54"/><polygon class="b" points="234.24 404.54 263.52 353.9 292.8 404.54 234.24 404.54"/><polygon class="c" points="292.8 404.54 322.08 353.9 351.36 404.54 292.8 404.54"/><polygon class="c" points="351.36 404.54 380.64 353.9 409.92 404.54 351.36 404.54"/><polygon class="b" points="204.97 455.17 234.24 404.54 263.52 455.17 204.97 455.17"/><polygon class="a" points="263.52 455.17 292.8 404.54 322.08 455.17 263.52 455.17"/><polygon class="a" points="322.08 455.17 351.36 404.54 380.64 455.17 322.08 455.17"/><polygon class="b" points="175.69 404.54 204.97 455.17 234.24 404.54 175.69 404.54"/><polygon class="b" points="234.24 404.54 263.52 455.17 292.8 404.54 234.24 404.54"/><polygon class="a" points="292.8 404.54 322.08 455.17 351.36 404.54 292.8 404.54"/><polygon class="a" points="351.36 404.54 380.64 455.17 409.92 404.54 351.36 404.54"/><polygon class="b" points="204.97 353.9 234.24 303.27 263.52 353.9 204.97 353.9"/><polygon class="c" points="263.52 353.9 292.8 303.27 322.08 353.9 263.52 353.9"/><polygon class="c" points="322.08 353.9 351.36 303.27 380.64 353.9 322.08 353.9"/><polygon class="c" points="234.24 303.27 263.52 353.9 292.8 303.27 234.24 303.27"/><polygon class="c" points="292.8 303.27 322.08 353.9 351.36 303.27 292.8 303.27"/><polygon class="b" points="201.93 151.89 231.21 202.52 260.49 151.89 201.93 151.89"/><polygon class="a" points="260.49 151.89 289.76 202.52 319.04 151.89 260.49 151.89"/><polygon class="a" points="319.04 151.89 348.32 202.52 377.6 151.89 319.04 151.89"/><polygon class="a" points="231.21 202.52 260.49 151.89 289.76 202.52 231.21 202.52"/><polygon class="a" points="289.76 202.52 319.04 151.89 348.32 202.52 289.76 202.52"/><polygon class="b" points="201.93 50.63 231.21 101.26 260.49 50.63 201.93 50.63"/><polygon class="c" points="260.49 50.63 289.76 101.26 319.04 50.63 260.49 50.63"/><polygon class="c" points="319.04 50.63 348.32 101.26 377.6 50.63 319.04 50.63"/><polygon class="b" points="172.65 101.26 201.93 50.63 231.21 101.26 172.65 101.26"/><polygon class="b" points="231.21 101.26 260.49 50.63 289.76 101.26 231.21 101.26"/><polygon class="c" points="289.76 101.26 319.04 50.63 348.32 101.26 289.76 101.26"/><polygon class="c" points="348.32 101.26 377.6 50.63 406.88 101.26 348.32 101.26"/><polygon class="b" points="201.93 151.89 231.21 101.26 260.49 151.89 201.93 151.89"/><polygon class="a" points="260.49 151.89 289.76 101.26 319.04 151.89 260.49 151.89"/><polygon class="a" points="319.04 151.89 348.32 101.26 377.6 151.89 319.04 151.89"/><polygon class="b" points="172.65 101.26 201.93 151.89 231.21 101.26 172.65 101.26"/><polygon class="b" points="231.21 101.26 260.49 151.89 289.76 101.26 231.21 101.26"/><polygon class="a" points="289.76 101.26 319.04 151.89 348.32 101.26 289.76 101.26"/><polygon class="a" points="348.32 101.26 377.6 151.89 406.88 101.26 348.32 101.26"/><polygon class="b" points="201.93 50.63 231.21 0 260.49 50.63 201.93 50.63"/><polygon class="c" points="260.49 50.63 289.76 0 319.04 50.63 260.49 50.63"/><polygon class="c" points="319.04 50.63 348.32 0 377.6 50.63 319.04 50.63"/><polygon class="c" points="231.21 0 260.49 50.63 289.76 0 231.21 0"/><polygon class="c" points="289.76 0 319.04 50.63 348.32 0 289.76 0"/><polygon class="b" points="29.28 455.67 58.56 506.3 87.84 455.67 29.28 455.67"/><polygon class="a" points="87.84 455.67 117.11 506.3 146.39 455.67 87.84 455.67"/><polygon class="a" points="146.39 455.67 175.67 506.3 204.95 455.67 146.39 455.67"/><polygon class="a" points="58.56 506.3 87.84 455.67 117.11 506.3 58.56 506.3"/><polygon class="a" points="117.11 506.3 146.39 455.67 175.67 506.3 117.11 506.3"/><polygon class="b" points="29.28 354.41 58.56 405.04 87.84 354.41 29.28 354.41"/><polygon class="c" points="87.84 354.41 117.11 405.04 146.39 354.41 87.84 354.41"/><polygon class="c" points="146.39 354.41 175.67 405.04 204.95 354.41 146.39 354.41"/><polygon class="b" points="0 405.04 29.28 354.41 58.56 405.04 0 405.04"/><polygon class="b" points="58.56 405.04 87.84 354.41 117.11 405.04 58.56 405.04"/><polygon class="c" points="117.11 405.04 146.39 354.41 175.67 405.04 117.11 405.04"/><polygon class="c" points="175.67 405.04 204.95 354.41 234.23 405.04 175.67 405.04"/><polygon class="b" points="29.28 455.67 58.56 405.04 87.84 455.67 29.28 455.67"/><polygon class="a" points="87.84 455.67 117.11 405.04 146.39 455.67 87.84 455.67"/><polygon class="a" points="146.39 455.67 175.67 405.04 204.95 455.67 146.39 455.67"/><polygon class="b" points="0 405.04 29.28 455.67 58.56 405.04 0 405.04"/><polygon class="b" points="58.56 405.04 87.84 455.67 117.11 405.04 58.56 405.04"/><polygon class="a" points="117.11 405.04 146.39 455.67 175.67 405.04 117.11 405.04"/><polygon class="a" points="175.67 405.04 204.95 455.67 234.23 405.04 175.67 405.04"/><polygon class="b" points="29.28 354.41 58.56 303.78 87.84 354.41 29.28 354.41"/><polygon class="c" points="87.84 354.41 117.11 303.78 146.39 354.41 87.84 354.41"/><polygon class="c" points="146.39 354.41 175.67 303.78 204.95 354.41 146.39 354.41"/><polygon class="c" points="58.56 303.78 87.84 354.41 117.11 303.78 58.56 303.78"/><polygon class="c" points="117.11 303.78 146.39 354.41 175.67 303.78 117.11 303.78"/><polygon class="c" points="319.64 151.22 348.92 201.85 378.2 151.22 319.64 151.22"/><polygon class="b" points="290.09 203.41 319.88 151.13 349.67 203.41 290.09 203.41"/><polygon class="c" points="260.35 252.65 289.63 202.01 318.91 252.65 260.35 252.65"/><polygon class="a" points="259.85 252.65 289.12 303.27 318.4 252.65 259.85 252.65"/><polygon class="b" points="116.87 303.27 146.15 353.9 175.43 303.27 116.87 303.27"/><polygon class="a" points="146.15 353.9 175.43 303.27 204.71 353.9 146.15 353.9"/><path class="e" d="M698.93,163.34h73.85L854,413.59H794.83l-17.15-55.65H687l-17.15,55.65h-53.2Zm.35,154.35h66.15l-32.9-108.15Z"/><path class="e" d="M912.78,207.44H845.23v-44.1h192.15v44.1H969.83V413.59H912.78Z"/><path class="e" d="M1072.72,163.34h56.7v205.8h101.85v44.45H1072.72Z"/><path class="e" d="M1333.12,163.34H1407l81.2,250.25H1429l-17.15-55.65h-90.65l-17.15,55.65h-53.2Zm.35,154.35h66.15l-32.9-108.15Z"/><path class="e" d="M1522.46,163.34h65.8l95.2,164.85V163.34h50.4V413.59h-56.7l-104.3-178.15V413.59h-50.4Z"/><path class="e" d="M1836.76,207.44h-67.55v-44.1h192.15v44.1h-67.55V413.59h-57.05Z"/></svg>
