<svg xmlns="http://www.w3.org/2000/svg" width="45.9" height="38.75" viewBox="0 0 45.9 38.75">
  <metadata><?xpacket begin="﻿" id="W5M0MpCehiHzreSzNTczkc9d"?>
<x:xmpmeta xmlns:x="adobe:ns:meta/" x:xmptk="Adobe XMP Core 5.6-c138 79.159824, 2016/09/14-01:09:01        ">
   <rdf:RDF xmlns:rdf="http://www.w3.org/1999/02/22-rdf-syntax-ns#">
      <rdf:Description rdf:about=""/>
   </rdf:RDF>
</x:xmpmeta>
                                                                                                    
                                                                                                    
                                                                                                    
                                                                                                    
                                                                                                    
                                                                                                    
                                                                                                    
                                                                                                    
                                                                                                    
                                                                                                    
                                                                                                    
                                                                                                    
                                                                                                    
                                                                                                    
                                                                                                    
                                                                                                    
                                                                                                    
                                                                                                    
                                                                                                    
                                                                                                    
                           
<?xpacket end="w"?></metadata>
<defs>
    <style>
      .cls-1 {
        fill: #13222c;
        fill-rule: evenodd;
      }
    </style>
  </defs>
  <path class="cls-1" d="M1196.48,6472.99l10.58,3.83,4.1,12.76a1.257,1.257,0,0,0,1.98.58l5.9-4.66a1.8,1.8,0,0,1,2.14-.06l10.64,7.49a1.26,1.26,0,0,0,1.96-.73l7.79-36.34a1.231,1.231,0,0,0-1.67-1.37l-43.43,16.24A1.193,1.193,0,0,0,1196.48,6472.99Zm14.02,1.79,20.68-12.35a0.354,0.354,0,0,1,.44.55l-17.07,15.38a3.408,3.408,0,0,0-1.1,2.06l-0.58,4.17a0.542,0.542,0,0,1-1.05.08l-2.23-7.62A1.985,1.985,0,0,1,1210.5,6474.78Z" transform="translate(-1195.69 -6454.41)"/>
</svg>
