<svg width="31.444" height="31.443" xmlns="http://www.w3.org/2000/svg">

 <g>
  <title>background</title>
  <rect fill="none" id="canvas_background" height="402" width="582" y="-1" x="-1"/>
 </g>
 <g>
  <title>Layer 1</title>
  <g id="svg_1">
   <path id="svg_2" fill="#13212e" d="m31.202,16.369c-0.62,-1.388 -2.249,-2.011 -3.637,-1.391l-1.325,0.594l-3.396,-7.591l1.325,-0.592c1.388,-0.622 2.01,-2.25 1.389,-3.637c-0.62,-1.389 -2.248,-2.012 -3.637,-1.39l-1.324,0.593l-0.593,-1.326c-0.621,-1.388 -2.249,-2.009 -3.637,-1.388c-1.388,0.62 -2.009,2.247 -1.389,3.637l0.593,1.325l-7.591,3.395l-0.592,-1.325c-0.621,-1.39 -2.249,-2.009 -3.637,-1.39c-1.388,0.621 -2.009,2.249 -1.389,3.637l0.592,1.324l-1.324,0.594c-1.388,0.621 -2.01,2.247 -1.389,3.636c0.62,1.388 2.249,2.01 3.637,1.39l1.325,-0.594l3.394,7.592l-1.325,0.592c-1.388,0.621 -2.009,2.25 -1.389,3.637c0.621,1.389 2.249,2.011 3.637,1.391l1.324,-0.593l0.593,1.325c0.621,1.389 2.249,2.01 3.637,1.389c1.387,-0.62 2.009,-2.248 1.388,-3.636l-0.591,-1.326l7.591,-3.394l0.592,1.321c0.621,1.391 2.248,2.013 3.637,1.392c1.388,-0.619 2.01,-2.248 1.389,-3.637l-0.592,-1.324l1.323,-0.594c1.39,-0.621 2.012,-2.248 1.391,-3.636zm-17.579,4.846l-3.395,-7.593l7.591,-3.394l3.395,7.591l-7.591,3.396z"/>
  </g>
  <g id="svg_3"/>
  <g id="svg_4"/>
  <g id="svg_5"/>
  <g id="svg_6"/>
  <g id="svg_7"/>
  <g id="svg_8"/>
  <g id="svg_9"/>
  <g id="svg_10"/>
  <g id="svg_11"/>
  <g id="svg_12"/>
  <g id="svg_13"/>
  <g id="svg_14"/>
  <g id="svg_15"/>
  <g id="svg_16"/>
  <g id="svg_17"/>
 </g>
</svg>