<svg width="50" height="50" xmlns="http://www.w3.org/2000/svg">
 <defs>
  <style>.a{fill:#00ab6b;}.b{fill:#13212e;}</style>
 </defs>
 <title>Medium</title>
 <g>
  <title>background</title>
  <rect fill="none" id="canvas_background" height="52" width="52" y="-1" x="-1"/>
 </g>
 <g>
  <title>Layer 1</title>
  <path id="svg_2" d="m48.77,10.82l-16,-8a0.55,0.55 0 0 0 -0.23,-0.06l0,0a0.58,0.58 0 0 0 -0.49,0.27l-9.86,16l11,17.89l15.73,-25.56a0.38,0.38 0 0 0 -0.15,-0.54z" class="b"/>
  <polygon id="svg_3" points="16.959999084472656,13.430000305175781 16.959999084472656,30.689998626708984 32.310001373291016,38.369998931884766 16.959999084472656,13.430000305175781 " class="b"/>
  <path id="svg_4" d="m33.64,39l14.09,7a0.89,0.89 0 0 0 1.4,-0.86l0,-31.29l-15.49,25.15z" class="b"/>
  <path id="svg_5" d="m15.26,10.91l-14.76,-7.39l-0.93,-0.47a0.85,0.85 0 0 0 -0.38,-0.1a0.51,0.51 0 0 0 -0.4,0.18a0.76,0.76 0 0 0 -0.15,0.49l0,33.7a1.85,1.85 0 0 0 0.93,1.51l14.5,7.25a1.28,1.28 0 0 0 0.57,0.15c0.49,0 0.83,-0.38 0.83,-1l0,-34a0.38,0.38 0 0 0 -0.21,-0.32z" class="b"/>
 </g>
</svg>