<svg width="29.16" height="31" xmlns="http://www.w3.org/2000/svg">

 <g>
  <title>background</title>
  <rect fill="none" id="canvas_background" height="33" width="31.16" y="-1" x="-1"/>
 </g>
 <g>
  <title>Layer 1</title>
  <g transform="rotate(13.897319793701172 14.866213798522969,15.579498291015621) " id="svg_1">
   <path id="svg_2" fill="#13212e" d="m24.750714,17.673999c-0.457,-0.789 -1.08,-1.408 -1.869,-1.846c-0.543,-0.312 -1.332,-0.604 -2.361,-0.865c0.959,-0.326 1.732,-0.732 2.314,-1.232c0.588,-0.504 1.031,-1.08 1.338,-1.727c0.314,-0.65 0.477,-1.336 0.477,-2.062c0,-0.993 -0.295,-1.909 -0.883,-2.745c-0.592,-0.836 -1.428,-1.474 -2.52,-1.916c-0.42,-0.173 -0.922,-0.304 -1.477,-0.41l0,-3.871l-3.711,0l0,3.611l-2.39,0l0,-3.611l-3.713,0l0,3.611l-5.668,0l0,3.032l0.856,0c0.578,0 0.975,0.054 1.176,0.16c0.202,0.104 0.351,0.245 0.436,0.426c0.086,0.177 0.126,0.593 0.126,1.244l0,12.237c0,0.643 -0.04,1.047 -0.126,1.229c-0.085,0.186 -0.232,0.324 -0.436,0.432c-0.201,0.098 -0.598,0.146 -1.176,0.146l-0.856,0l0,3.029l5.668,0l0,3.613l3.713,0l0,-3.613l2.113,0c0.093,0 0.185,0 0.275,0l0,3.613l3.711,0l0,-3.92c0.629,-0.119 1.178,-0.275 1.645,-0.463c1.281,-0.512 2.273,-1.258 2.975,-2.238c0.709,-0.982 1.057,-2.057 1.057,-3.221c-0.001,-0.969 -0.231,-1.85 -0.694,-2.643zm-12.44,-9.528l2.404,0c1.404,0 2.385,0.088 2.93,0.266c0.541,0.17 0.961,0.461 1.246,0.868c0.291,0.413 0.434,0.909 0.434,1.483c0,0.553 -0.154,1.041 -0.453,1.467c-0.309,0.428 -0.762,0.744 -1.363,0.949c-0.604,0.213 -1.533,0.32 -2.791,0.32l-2.404,0l-0.003,-5.353l0,0zm6.793,13.567c-0.432,0.541 -0.943,0.904 -1.562,1.074c-0.607,0.172 -1.379,0.26 -2.312,0.26l-1.602,0c-0.532,0 -0.859,-0.031 -0.982,-0.088c-0.123,-0.051 -0.205,-0.156 -0.26,-0.301c-0.037,-0.119 -0.068,-0.51 -0.074,-1.188l0,-4.75l2.838,0c1.254,0 2.17,0.115 2.78,0.348c0.605,0.23 1.066,0.57 1.361,1.025c0.307,0.447 0.463,0.992 0.463,1.648c0.001,0.769 -0.216,1.421 -0.65,1.972z"/>
  </g>
  <g id="svg_3"/>
  <g id="svg_4"/>
  <g id="svg_5"/>
  <g id="svg_6"/>
  <g id="svg_7"/>
  <g id="svg_8"/>
  <g id="svg_9"/>
  <g id="svg_10"/>
  <g id="svg_11"/>
  <g id="svg_12"/>
  <g id="svg_13"/>
  <g id="svg_14"/>
  <g id="svg_15"/>
  <g id="svg_16"/>
  <g id="svg_17"/>
 </g>
</svg>